<svg xmlns="http://www.w3.org/2000/svg" version="1.1" width="1024" height="64">
<rect x="0" y="0" width="1024" height="64" fill="#1f3912" />
<g transform="scale(4.000000) translate(0.5 0.5)">
<polygon fill="#86f04c" fill-opacity="0.501961" points="244.239780,8.674641,99.225945,11.179059,15.197307,6.792710,134.267010,4.563102" />
<polygon fill="#000000" fill-opacity="0.501961" points="-5.790636,26.306915,1.913045,-16.000000,58.132519,-9.215596,56.805285,31.000000" />
<polygon fill="#87f24a" fill-opacity="0.501961" points="215.134090,6.181312,255.310172,6.614714,245.031154,10.256383,219.615886,9.000173" />
<polygon fill="#000000" fill-opacity="0.501961" points="172.152420,11.786893,5.370360,13.911814,200.911830,31.000000,271.000000,11.702894" />
<polygon fill="#000000" fill-opacity="0.501961" points="60.113273,3.242339,-10.780283,-0.551870,262.169483,-0.645196,271.000000,4.754572" />
<polygon fill="#6dcd3c" fill-opacity="0.501961" points="59.575829,4.476476,56.109643,11.587009,113.059921,8.956410,102.917612,4.728975" />
<polygon fill="#4cd74e" fill-opacity="0.501961" points="205.385215,3.526854,187.190270,8.251562,207.774831,12.188711,216.727666,7.278208" />
<polygon fill="#b33900" fill-opacity="0.501961" points="59.069227,2.604263,57.267477,6.254023,-2.662147,8.571410,58.615701,9.130253" />
<polygon fill="#34bb4b" fill-opacity="0.501961" points="152.973900,13.863846,153.941470,2.952798,163.668350,1.271650,164.882104,12.235368" />
<polygon fill="#36af4f" fill-opacity="0.501961" points="238.262445,10.751776,240.864084,0.165112,256.643051,8.710161,242.441983,12.458117" />
<polygon fill="#000000" fill-opacity="0.501961" points="159.211991,31.000000,-16.000000,14.682125,92.848954,-0.089477,-11.715459,-0.272966" />
<polygon fill="#000000" fill-opacity="0.501961" points="137.796314,-16.000000,170.078029,6.960474,212.963274,3.264560,271.000000,2.978799" />
<polygon fill="#7fbf29" fill-opacity="0.501961" points="219.936345,-16.000000,228.946065,11.743289,217.983380,8.704928,228.111345,-2.337714" />
<polygon fill="#000000" fill-opacity="0.501961" points="170.467520,9.068669,139.131958,31.000000,271.000000,16.112566,193.107180,10.353261" />
<polygon fill="#000000" fill-opacity="0.501961" points="260.640211,25.753310,213.701155,23.392427,255.830303,-8.672290,206.234187,-10.856470" />
<polygon fill="#000004" fill-opacity="0.501961" points="97.713076,-16.000000,191.291302,3.229081,133.687013,2.605652,126.780400,7.617164" />
<polygon fill="#56c64b" fill-opacity="0.501961" points="85.456867,6.564582,109.142482,6.181219,172.883552,6.198517,153.726382,11.843525" />
<polygon fill="#000000" fill-opacity="0.501961" points="228.946637,31.000000,176.347076,9.148685,167.857521,12.350694,20.528199,15.206695" />
<polygon fill="#000000" fill-opacity="0.501961" points="-15.680763,7.028572,55.170915,6.799764,65.196132,-6.516679,-6.860728,-2.574127" />
<polygon fill="#b44100" fill-opacity="0.501961" points="-16.000000,19.166862,0.630878,7.134321,17.019620,7.191850,-10.603216,10.142114" />
<polygon fill="#000000" fill-opacity="0.501961" points="27.114491,9.407524,-16.000000,8.944814,34.376620,31.000000,60.959570,10.055116" />
<polygon fill="#000000" fill-opacity="0.501961" points="210.770444,6.774076,226.426176,3.699653,271.000000,-0.011888,207.544674,-1.902290" />
<polygon fill="#8c840d" fill-opacity="0.501961" points="113.936715,10.842364,120.666954,12.446306,114.700020,3.707599,114.585553,-16.000000" />
<polygon fill="#72ad27" fill-opacity="0.501961" points="95.635484,12.246339,113.469480,7.405741,82.453722,13.524123,78.206904,4.785191" />
<polygon fill="#5ebc36" fill-opacity="0.501961" points="206.559663,12.328762,209.110012,4.245195,196.271038,7.096375,181.864693,8.298233" />
<polygon fill="#000007" fill-opacity="0.501961" points="262.498095,-3.805372,248.460887,2.087377,271.000000,24.913711,237.177367,31.000000" />
<polygon fill="#50bd32" fill-opacity="0.501961" points="236.573777,25.771627,239.485699,9.148993,249.132128,11.475553,242.419471,1.864450" />
<polygon fill="#52b731" fill-opacity="0.501961" points="80.747405,9.520579,104.447937,2.047464,104.337875,14.737676,93.178182,6.077742" />
<polygon fill="#6fab29" fill-opacity="0.501961" points="164.618735,11.905568,155.815620,26.497155,162.510725,31.000000,161.908776,-3.982457" />
<polygon fill="#030701" fill-opacity="0.501961" points="66.368392,12.433049,143.345759,13.327960,142.702638,9.007911,185.984341,31.000000" />
</g>
</svg>