<svg xmlns="http://www.w3.org/2000/svg" version="1.1" width="1024" height="64">
<rect x="0" y="0" width="1024" height="64" fill="#ffffff" />
<g transform="scale(4.000000) translate(0.5 0.5)">
<polygon fill="#ffd601" fill-opacity="0.501961" points="271.000000,14.112742,-4.672775,12.978089,24.927620,2.773623,230.169745,2.144131" />
<polygon fill="#ff8801" fill-opacity="0.501961" points="74.162646,14.744623,-16.000000,5.931440,207.251955,1.009703,271.000000,10.163449" />
<polygon fill="#ff8601" fill-opacity="0.501961" points="233.618044,14.582902,-16.000000,8.510047,182.613638,2.561062,244.116848,3.368878" />
<polygon fill="#ff8801" fill-opacity="0.501961" points="12.129280,6.985154,58.167574,2.532600,256.145393,6.892624,37.199342,13.915719" />
<polygon fill="#ff7d01" fill-opacity="0.501961" points="223.035344,2.726124,103.292408,4.535146,197.469992,13.482888,240.765628,12.064567" />
<polygon fill="#000001" fill-opacity="0.501961" points="246.728191,7.621723,239.980673,11.701579,228.570601,14.007003,265.214108,10.510481" />
<polygon fill="#ff8501" fill-opacity="0.501961" points="260.763380,7.692436,131.482123,13.252115,22.694070,10.586747,102.178393,2.341850" />
<polygon fill="#ff8e01" fill-opacity="0.501961" points="5.717732,8.933459,33.585312,11.289377,156.662385,11.779435,78.539790,2.421835" />
<polygon fill="#fc7901" fill-opacity="0.501961" points="132.902056,12.369735,236.024717,13.144343,244.652318,9.072527,233.656103,2.026691" />
<polygon fill="#f19302" fill-opacity="0.501961" points="28.456950,11.695853,67.228114,4.436907,5.729832,10.821231,7.764622,4.648969" />
<polygon fill="#030000" fill-opacity="0.501961" points="150.782968,-6.442102,156.166263,0.858084,176.963952,2.476556,159.453016,3.878601" />
<polygon fill="#ff8f01" fill-opacity="0.501961" points="63.868333,12.012663,26.735193,11.430916,34.234659,3.833481,93.134020,4.980758" />
<polygon fill="#ff8401" fill-opacity="0.501961" points="94.642072,11.559021,212.950844,12.403239,249.941014,8.569377,209.407379,3.436234" />
<polygon fill="#f47b01" fill-opacity="0.501961" points="153.997413,13.181122,132.804315,1.369093,113.686633,7.226285,148.322190,13.885986" />
<polygon fill="#000000" fill-opacity="0.501961" points="12.952456,11.739349,-14.887413,13.487440,29.222019,11.718353,-6.858623,10.402968" />
<polygon fill="#0b0000" fill-opacity="0.501961" points="203.277602,13.063116,269.133129,13.188023,205.571528,13.841663,194.764983,13.508696" />
<polygon fill="#120100" fill-opacity="0.501961" points="21.963324,6.497614,36.987558,2.314221,22.082566,5.253820,13.986613,4.388059" />
<polygon fill="#fd8501" fill-opacity="0.501961" points="156.545660,10.561244,124.495855,2.299113,44.761883,11.053566,110.501907,12.739674" />
<polygon fill="#fb7f01" fill-opacity="0.501961" points="146.635044,4.636435,222.011572,11.067344,240.439370,2.350570,209.678375,4.101436" />
<polygon fill="#feaa03" fill-opacity="0.501961" points="42.019888,9.047384,8.027675,6.930954,31.622706,5.764056,28.959215,4.251760" />
<polygon fill="#ff8b02" fill-opacity="0.501961" points="182.750468,4.077285,59.872767,10.525850,191.768638,9.549661,192.366490,15.140466" />
<polygon fill="#fc9602" fill-opacity="0.501961" points="57.020323,10.935176,7.476477,6.804453,69.503978,10.656113,68.104942,1.077831" />
<polygon fill="#060000" fill-opacity="0.501961" points="19.797968,10.889457,10.120884,9.956913,-6.565158,12.460407,8.504207,10.817212" />
<polygon fill="#782e00" fill-opacity="0.501961" points="156.027332,13.205135,144.720188,18.030733,156.784733,11.900772,166.949253,12.512811" />
<polygon fill="#000001" fill-opacity="0.501961" points="238.633620,4.529195,271.000000,17.323323,246.669754,12.508857,271.000000,13.341245" />
<polygon fill="#320a00" fill-opacity="0.501961" points="236.169611,-5.905988,206.877079,2.588233,224.566829,2.382475,208.796937,1.591385" />
<polygon fill="#fd8f01" fill-opacity="0.501961" points="176.705238,13.631330,174.455194,5.293783,182.357252,3.185143,199.445077,10.112954" />
<polygon fill="#e17a00" fill-opacity="0.501961" points="135.040812,-6.287177,134.152683,12.663364,142.495139,6.532565,133.032278,15.044602" />
<polygon fill="#050000" fill-opacity="0.501961" points="181.972411,1.269373,200.873141,0.323673,164.260142,2.777195,198.368239,2.652256" />
<polygon fill="#f79702" fill-opacity="0.501961" points="6.235949,5.374796,6.767426,4.599515,7.981487,8.379461,63.220409,11.954475" />
</g>
</svg>