<svg xmlns="http://www.w3.org/2000/svg" version="1.1" width="1024" height="64">
<rect x="0" y="0" width="1024" height="64" fill="#ffffff" />
<g transform="scale(4.000000) translate(0.5 0.5)">
<polygon fill="#af3000" fill-opacity="0.501961" points="50.588932,7.748885,130.552386,23.524763,130.542400,0.879633,166.911656,-16.000000" />
<polygon fill="#9b3205" fill-opacity="0.501961" points="173.668850,8.909903,106.750732,8.646706,161.946890,7.017220,262.921377,8.038159" />
<polygon fill="#862a04" fill-opacity="0.501961" points="42.221786,6.990151,47.528317,6.250564,-2.441758,8.688537,54.560948,8.305343" />
<polygon fill="#561c03" fill-opacity="0.501961" points="257.601045,6.754821,242.283208,8.720909,205.440153,9.607856,224.014621,7.166122" />
<polygon fill="#762504" fill-opacity="0.501961" points="29.307728,7.007499,53.096879,8.431051,7.670766,8.624990,-8.287789,7.524543" />
<polygon fill="#ad3000" fill-opacity="0.501961" points="76.448848,14.523126,87.651057,-14.922271,73.461260,31.000000,88.679278,31.000000" />
<polygon fill="#5e1f04" fill-opacity="0.501961" points="206.712539,9.370878,195.078899,9.778336,224.161367,7.800670,190.420111,7.333989" />
<polygon fill="#7e2905" fill-opacity="0.501961" points="272.235488,10.089269,271.000000,12.096850,247.819626,7.864603,271.000000,5.491355" />
<polygon fill="#922700" fill-opacity="0.501961" points="75.908370,3.416861,81.906128,0.472636,89.445070,-12.309941,79.493755,-16.000000" />
<polygon fill="#7d2200" fill-opacity="0.501961" points="78.111336,14.293951,93.652890,19.009520,93.541942,31.000000,84.086473,14.564740" />
<polygon fill="#772403" fill-opacity="0.501961" points="136.618232,8.257485,114.085589,5.828864,148.205908,8.028726,136.406649,8.525367" />
<polygon fill="#6b2104" fill-opacity="0.501961" points="47.057210,6.746066,46.682718,3.345625,46.521873,8.880569,66.776308,7.602021" />
<polygon fill="#c13602" fill-opacity="0.501961" points="99.373784,9.008804,104.784561,7.362219,100.206141,4.019850,99.209833,19.107251" />
<polygon fill="#511a03" fill-opacity="0.501961" points="235.875850,15.664102,242.419753,8.654836,271.000000,5.943359,241.697894,9.432981" />
<polygon fill="#942800" fill-opacity="0.501961" points="18.158961,31.000000,91.371128,22.786533,87.614433,-3.127758,89.268425,15.285114" />
<polygon fill="#5a1800" fill-opacity="0.501961" points="83.583862,0.512635,128.051501,-5.098419,82.010892,-16.834074,116.161473,-10.424801" />
<polygon fill="#672204" fill-opacity="0.501961" points="151.648660,8.908825,149.367069,7.642745,160.112959,7.343499,136.648759,7.241587" />
<polygon fill="#a02c00" fill-opacity="0.501961" points="93.376994,27.196736,80.015038,-16.000000,93.820160,-16.000000,85.744994,0.564387" />
<polygon fill="#862400" fill-opacity="0.501961" points="79.283616,10.753361,78.615742,27.802213,78.000969,18.416981,80.435181,23.391147" />
<polygon fill="#a62d00" fill-opacity="0.501961" points="116.777933,1.799145,111.053227,-16.000000,116.704657,-2.868745,114.541651,31.000000" />
<polygon fill="#9f2c00" fill-opacity="0.501961" points="69.549569,-16.000000,81.837466,1.053554,85.546300,-16.000000,97.685039,-14.335305" />
<polygon fill="#a32d01" fill-opacity="0.501961" points="88.156164,27.157689,85.572680,-16.000000,87.602270,12.275246,86.898690,31.000000" />
<polygon fill="#932800" fill-opacity="0.501961" points="82.465866,14.590688,84.273497,21.903533,83.877063,34.283436,95.037392,29.532842" />
<polygon fill="#8b2600" fill-opacity="0.501961" points="106.429971,-12.349303,105.723134,14.200212,105.921224,-5.595838,103.589830,23.441542" />
<polygon fill="#aa2f00" fill-opacity="0.501961" points="89.543534,-16.000000,100.275314,-16.000000,88.843443,-11.778428,86.214637,31.000000" />
<polygon fill="#be3501" fill-opacity="0.501961" points="96.954483,-6.280257,96.786628,9.774134,95.470287,-13.727259,96.891537,3.152461" />
<polygon fill="#622004" fill-opacity="0.501961" points="174.776417,7.217104,201.790794,8.199031,177.808093,8.651212,184.935334,9.018700" />
<polygon fill="#762505" fill-opacity="0.501961" points="43.045437,7.699184,59.924002,8.003431,60.234334,8.051789,30.334274,8.188694" />
<polygon fill="#000000" fill-opacity="0.000000" points="125.165787,30.960921,134.415408,25.719667,111.522964,34.425201,116.819164,34.249172" />
<polygon fill="#a72e01" fill-opacity="0.501961" points="95.921317,19.802240,84.973749,31.000000,106.048557,4.998268,86.172713,27.765198" />
</g>
</svg>